<svg viewBox="0 0 32 32" xmlns="http://www.w3.org/2000/svg"><path d="m21.68 16c-1.07-2.71-2.79-8.77-.76-11.88a4.38 4.38 0 0 1 2.38-1.73 17.12 17.12 0 0 1 3.7-.39v-2c-.34 0-.67 0-1 0a10.6 10.6 0 0 0 -3.26.47c-9.99 2.29-12.19 12.53-12.63 15.58a8 8 0 1 0 2 0 21.23 21.23 0 0 1 2.14-6.62 14.11 14.11 0 0 1 4.33-5c-1.46 3.91.12 9.29 1 11.71a7.9 7.9 0 0 0 -2 .64l.86 1.81a6 6 0 1 1 2.56 11.41 6 6 0 0 1 -1.71-.25l-.57 1.92a8 8 0 1 0 3-15.63zm-4.68 8a6 6 0 1 1 -6-6 6 6 0 0 1 6 6z"/><path d="m7 24h2a2 2 0 0 1 2-2v-2a4 4 0 0 0 -4 4z"/></svg>